{"title":"Resident Evil Retribution 2012 1080p x264 BrRip Dual-Audio [Engl","uid":8023487,"size":2087480080,"categoryP":"video","categoryS":"hd___movies","magnet":"?xt=urn:btih:77d036f1c5374cf03eb7b8ebff08cfa020a66bf0&amp;dn=Resident+Evil+Retribution+2012+1080p+x264+BrRip+Dual-Audio+%5BEngl&amp;tr=udp%3A%2F%2Ftracker.openbittorrent.com%3A80&amp;tr=udp%3A%2F%2Fopen.demonii.com%3A1337&amp;tr=udp%3A%2F%2Ftracker.coppersurfer.tk%3A6969&amp;tr=udp%3A%2F%2Fexodus.desync.com%3A6969","seeders":0,"leechers":1,"uploader":"nimitmak","files":10,"time":1358258834,"description":"::General::\nComplete name: Resident Evil Retribution 2012 1080p x264 BrRip Dual-Audio [English 5.1 - Hindi 5.1] NimitMak SilverRG\nFormat: Matroska\nFile size: 1.92 GiB\nDuration: 1h 35mn\nOverall Bitrate: 2881 Kbps\nLanguage: Dual-Audio [Eng-Hin]\nSub Title: English\nEncoder: NimitMak\n\n::IMDB INFO::\nIMDB Link:http://www.imdb.com/title/tt1855325/\nIMDB Rating:5.2/10\nRelease Date:28 September 2012 (India)\nGenre: Action | Horror | Sci-Fi \n\n::Video::\nFormat/Info: Advanced Video Codec\nBitrate: 1799 Kbps\nWidth: 1920 pixels\nHeight: 800 pixels\nDisplay aspect ratio: 2.40:1\nFrame rate: 23.976 fps\n\n::Audio #1::\nID: 2\nFormat : AC-3\nFormat/Info: Audio Coding 3\nDuration : 1h 35mn\nBit rate mode: Constant\nBit rate: 640 Kbps\nChannel(s): 6 channels\nChannel positions: Front: L C R, Side: L R, LFE\nSampling rate: 48.0 KHz\nBit depth: 16 bits\nCompression mode: Lossy\nStream size : 438 MiB (22%)\nTitle: Hindi - NimitMak SilverRG\n\n::Audio #2::\nID: 3\nFormat: AC-3\nFormat/Info: Audio Coding 3\nDuration: 1h 35mn\nBit rate mode: Constant\nBit rate: 448 Kbps\nChannel(s): 6 channels\nChannel positions: Front: L C R, Side: L R, LFE\nSampling rate : 48.0 KHz\nBit depth: 16 bits\nCompression mode: Lossy\nStream size: 306 MiB (16%)\nTitle: English - NimitMak SilverRG\n\n::Text::\nID: 4\nFormat: UTF-8\nCodec ID: S_TEXT/UTF8\nCodec ID/Info: UTF-8 Plain Text\nTitle: English - NimitMak SilverRG\n\nScreens : \n &lt;a href=&quot;\nhttp://i.imgbox.com/abfrdgd4&quot; rel=&quot;nofollow&quot; target=&quot;_NEW&quot;&gt;\nhttp://i.imgbox.com/abfrdgd4&lt;/a&gt; &lt;a href=&quot;\nhttp://i.imgbox.com/abwqid9n&quot; rel=&quot;nofollow&quot; target=&quot;_NEW&quot;&gt;\nhttp://i.imgbox.com/abwqid9n&lt;/a&gt; &lt;a href=&quot;\nhttp://i.imgbox.com/accHFP2d&quot; rel=&quot;nofollow&quot; target=&quot;_NEW&quot;&gt;\nhttp://i.imgbox.com/accHFP2d&lt;/a&gt; &lt;a href=&quot;\nhttp://i.imgbox.com/acmcLviM&quot; rel=&quot;nofollow&quot; target=&quot;_NEW&quot;&gt;\nhttp://i.imgbox.com/acmcLviM&lt;/a&gt; &lt;a href=&quot;\nhttp://i.imgbox.com/adg9N9zZ&quot; rel=&quot;nofollow&quot; target=&quot;_NEW&quot;&gt;\nhttp://i.imgbox.com/adg9N9zZ&lt;/a&gt; &lt;a href=&quot;\nhttp://i.imgbox.com/accHZR4d&quot; rel=&quot;nofollow&quot; target=&quot;_NEW&quot;&gt;\nhttp://i.imgbox.com/accHZR4d&lt;/a&gt; &lt;a href=&quot;\nhttp://i.imgbox.com/accesCqr&quot; rel=&quot;nofollow&quot; target=&quot;_NEW&quot;&gt;\nhttp://i.imgbox.com/accesCqr&lt;/a&gt; &lt;a href=&quot;\nhttp://i.imgbox.com/adjoQ3uP&quot; rel=&quot;nofollow&quot; target=&quot;_NEW&quot;&gt;\nhttp://i.imgbox.com/adjoQ3uP&lt;/a&gt; &lt;a href=&quot;\nhttp://i.imgbox.com/abqpyj9H&quot; rel=&quot;nofollow&quot; target=&quot;_NEW&quot;&gt;\nhttp://i.imgbox.com/abqpyj9H&lt;/a&gt; &lt;a href=&quot;\nhttp://i.imgbox.com/adfNC87K&quot; rel=&quot;nofollow&quot; target=&quot;_NEW&quot;&gt;\nhttp://i.imgbox.com/adfNC87K&lt;/a&gt; &lt;a href=&quot;\nhttp://i.imgbox.com/adqiYWCr&quot; rel=&quot;nofollow&quot; target=&quot;_NEW&quot;&gt;\nhttp://i.imgbox.com/adqiYWCr&lt;/a&gt; &lt;a href=&quot;\nhttp://i.imgbox.com/abhk7v19&quot; rel=&quot;nofollow&quot; target=&quot;_NEW&quot;&gt;\nhttp://i.imgbox.com/abhk7v19&lt;/a&gt;","torrent":{"xt":"urn:btih:77d036f1c5374cf03eb7b8ebff08cfa020a66bf0","amp;dn":"Resident+Evil+Retribution+2012+1080p+x264+BrRip+Dual-Audio+%5BEngl","amp;tr":["udp%3A%2F%2Ftracker.openbittorrent.com%3A80","udp%3A%2F%2Fopen.demonii.com%3A1337","udp%3A%2F%2Ftracker.coppersurfer.tk%3A6969","udp%3A%2F%2Fexodus.desync.com%3A6969"],"infoHash":"77d036f1c5374cf03eb7b8ebff08cfa020a66bf0","infoHashBuffer":{"type":"Buffer","data":[119,208,54,241,197,55,76,240,62,183,184,235,255,8,207,160,32,166,107,240]},"announce":[],"urlList":[]}}